<svg baseProfile="tiny" xmlns="http://www.w3.org/2000/svg" class="white-logo" width="160" height="48"
     viewBox="0 0 160 48" aria-labelledby="svg-logo-footer-title" role="image">
    <title id="svg-logo-footer-title">trivago</title>
    <path fill="#FFF"
          d="M50.2003 10.4043L58.3013 10.4043 64.4528 27.0035 64.552 27.0035 70.2537 10.4043 77.8041 10.4043 68.2021 34.8031 60.2513 34.8031M20.8185 16.404h-7.3996v8.1679c0 .6662.0824 1.2741.1561 1.825.0728.5484.2617 1.0238.5181 1.4247.256.4004.6618.7084 1.194.9238.5322.2174 1.2444.3252 2.1247.3252.439 0 1.0425-.0402 1.758-.1242.7155-.0832 1.2488-.2759 1.6487-.5742v6.2493c-1 .2998-1.8929.5-2.884.6007-.989.1-1.9725.15-2.926.15-1.3957 0-2.6838-.1324-3.8559-.4004-1.1745-.2652-2.2038-.6914-3.0841-1.2746-.8811-.5832-1.5896-1.3417-2.0846-2.2757-.4942-.9339-.7646-2.0659-.7646-3.3998V16.404H.0195v-5.9997h5.1997V3.2046h8.1996v7.1996h7.3996V16.404zM22.8184 10.4043h7.5996v3.9998h.075c.8004-1.5999 1.7503-2.6433 2.8503-3.392 1.1-.7513 2.4841-1.1358 4.1515-1.1358.433 0 .8775.0136 1.3103.046.4338.0348.8125.0964 1.2124.1959v6.8519c-.6-.1673-1.0707-.2924-1.5864-.3746-.5166-.083-1.065-.1259-1.6308-.1259-1.4345 0-2.5711.201-3.4041.6011-.8328.3983-1.4755.9587-1.9269 1.6744-.449.717-.7306 1.5756-.863 2.5744-.1341 1.0013-.1883 2.101-.1883 3.3024v10.1812h-7.5996V10.4043zM41.8175 10.4043h7.3996v24.3988h-7.3996V10.4043zM41.5155 3.986c0-1.1001.389-2.0385 1.1672-2.8166C43.4622.3897 44.4006 0 45.4994 0c1.1008 0 2.0399.3897 2.8178 1.1695.7787.7781 1.168 1.7164 1.168 2.8166 0 1.0989-.3893 2.0378-1.168 2.8153-.7779.7808-1.717 1.17-2.8178 1.17-1.0989 0-2.0372-.3891-2.8166-1.17C41.9045 6.0238 41.5155 5.0849 41.5155 3.986M90.5292 24.2036c-.5662 0-1.2749-.0164-2.1257.0336-.8498.0508-1.6669.1723-2.4497.4048-.7826.2331-1.4505.5736-2.0003 1.0389-.5498.4683-.825 1.1117-.825 1.9458 0 .9007.3832 1.5644 1.1507 1.9976.766.4324 1.5657.6496 2.3993.6496.7334 0 1.4421-.1012 2.1255-.3019.6836-.2002 1.2917-.4834 1.8251-.8507.5334-.3662.9763-.8318 1.2945-1.3999.3154-.5662.4914-1.2322.4914-2.0005v-1.5171H90.5292zM92.415 31.8032h-.1361c-.8334 1.1999-1.9427 2.1927-3.3239 2.7583-1.3849.5689-2.843.831-4.3765.831-1.1331 0-2.2247-.1684-3.2756-.4855-1.0495-.3152-1.9749-.7964-2.7745-1.4298-.8004-.6334-1.4342-1.4195-1.9008-2.3538-.4681-.9316-.7003-2.0165-.7003-3.2504 0-1.3998.2586-2.5848.7759-3.5514.5158-.9666 1.2153-1.768 2.0991-2.4008.8839-.634 1.8927-1.1245 3.0258-1.4748 1.1326-.3503 2.3077-.6084 3.5266-.7757 1.2154-.1659 2.4325-.266 3.6502-.3009 1.216-.0323 2.3403-.0502 3.3741-.0502 0-1.3319-.4734-2.3913-1.4245-3.1747-.9496-.7835-2.0757-1.1745-3.3756-1.1745-1.2333 0-2.3585.2587-3.375.7743-1.0172.5175-1.9253 1.2265-2.7253 2.1258l-4.0011-4.1011c1.3996-1.2996 3.0339-2.2755 4.901-2.9245 1.8667-.6512 3.8006-.9757 5.8013-.9757 2.1993 0 4.007.2751 5.4251.8254 1.4157.5505 2.5495 1.3597 3.4002 2.4263.8498 1.0666 1.4091 2.3734 1.7419 3.9246.3324 1.5506.4676 3.3426.4676 5.3758v12.3822H92.415V31.8032zM134.1952 22.6211c0 1.8329.4765 3.317 1.4253 4.4496.9515 1.1335 2.2852 1.6997 4.0051 1.6997 1.7198 0 3.0532-.5662 4.0031-1.6997.95-1.1325 1.4261-2.6167 1.4261-4.4496 0-1.833-.4761-3.3169-1.4261-4.4508-.95-1.1325-2.2833-1.7007-4.0031-1.7007-1.7198 0-3.0536.5682-4.0051 1.7007C134.6717 19.3041 134.1952 20.788 134.1952 22.6211M127.41 22.6211c0-1.9331.3172-3.6831.9488-5.2521.6346-1.565 1.5005-2.9069 2.6034-4.0234 1.0999-1.1172 2.3964-1.9752 3.89-2.5763 1.4935-.6005 3.084-.9014 4.7734-.9014 1.6882 0 3.2797.301 4.7722.9014 1.4933.6012 2.7889 1.4591 3.891 2.5763 1.1007 1.1165 1.9687 2.4585 2.6004 4.0234.6344 1.569.9515 3.319.9515 5.2521 0 1.9329-.3172 3.683-.9515 5.2499-.6318 1.5675-1.4997 2.9096-2.6004 4.0256-1.1021 1.1171-2.3977 1.9759-3.891 2.5743-1.4925.6004-3.084.9013-4.7722.9013-1.6894 0-3.2799-.301-4.7734-.9013-1.4937-.5984-2.7901-1.4572-3.89-2.5743-1.1029-1.116-1.9688-2.4581-2.6034-4.0256C127.7272 26.3041 127.41 24.554 127.41 22.6211M156.1236 16.921c-1.7505 0-3.1674-1.4182-3.1674-3.1676 0-1.75 1.4169-3.1681 3.1674-3.1681 1.7484 0 3.1676 1.4181 3.1676 3.1681C159.2913 15.5028 157.872 16.921 156.1236 16.921M156.1236 9.8578c-2.1522 0-3.8949 1.7446-3.8949 3.8956 0 2.1517 1.7427 3.8944 3.8949 3.8944 2.1497 0 3.8959-1.7428 3.8959-3.8944C160.0195 11.6025 158.2733 9.8578 156.1236 9.8578"></path>
    <path fill="#FFF"
          d="M156.6367 12.9753c0-.0937-.0176-.1753-.0541-.2431-.0367-.069-.0974-.1211-.1805-.1573-.058-.0264-.1244-.0422-.1973-.0487-.0724-.0067-.1619-.0099-.2701-.0099h-.316v1.0112h.2705c.1324 0 .2431-.0078.3346-.0242.0927-.0158.1699-.05.2336-.1021.0609-.0468.106-.1034.1336-.1681C156.6211 13.1674 156.6367 13.0806 156.6367 12.9753M158.1561 15.5812h-1.1509l-1.048-1.3774h-.3385v1.3774h-.9388v-3.7568h1.513c.208 0 .3896.0146.5437.0402.1561.0264.2982.079.4306.1627.1332.0848.2404.1942.3201.3259.0785.1316.1183.2995.1183.5042 0 .2872-.0644.5196-.1949.7001-.1303.1783-.3027.3206-.5193.428L158.1561 15.5812zM119.4785 10.3807v3.2692h-.1129c-.1311-.1791-.315-.4516-.8517-.9125-.7084-.6083-1.2251-.8958-1.9249-1.2832-.6935-.3841-1.5122-.7135-2.4001-.95-.8869-.2333-2.03-.425-3.0999-.425-1.739 0-3.3282.4744-4.6996 1.1916-1.3716.7189-2.3751 1.4499-3.2916 2.6665-.9025 1.1978-1.4296 2.3995-1.853 3.9665-.4226 1.5645-.5287 3.3654-.5287 4.9708 0 1.839.2771 3.5819.7263 5.1582.4517 1.5857 1.18 3.0155 2.122 4.0953 1.0249 1.1749 2.0772 1.782 3.549 2.4012 1.4722.6187 3.0369.8433 4.8443.8236 1.1437-.0125 2.2557-.2644 3.5405-.7593 1.5655-.6031 2.6592-1.7312 3.0905-2.3407h.0871v2.3645c0 1.7394-.3795 3.1682-1.465 4.2887-1.0873 1.1204-2.6725 1.7222-4.9812 1.7222-1.5376 0-2.504.0316-4.0682-.391-1.3601-.3674-3.0705-1.0148-4.3392-1.9448l-3.649 5.3562c1.9448 1.4083 3.7035 2.2753 5.8146 2.8342 2.0901.5533 4.2303.7277 6.4038.7277 4.7496 0 8.1111-1.1956 10.4366-3.5877 2.3239-2.3907 3.2721-5.8954 3.2721-10.5124V10.3807H119.4785zM117.6083 27.1031c-.9529 1.1374-2.2909 1.7056-4.0154 1.7056-1.7259 0-3.0637-.5682-4.0189-1.7056-.9515-1.1363-1.4296-2.6254-1.4296-4.4644 0-1.8392.4781-3.3282 1.4296-4.4658.9552-1.1363 2.293-1.7064 4.0189-1.7064 1.7245 0 3.0626.5701 4.0154 1.7064.9539 1.1376 1.4314 2.6266 1.4314 4.4658C119.0397 24.4777 118.5622 25.9668 117.6083 27.1031z"></path>
</svg>